<svg xmlns="http://www.w3.org/2000/svg" style="display: none;"><symbol id="cancel" viewBox="0 0 512.001 512.001"><title>cancel</title><path d="M284.286,256.002L506.143,34.144c7.811-7.811,7.811-20.475,0-28.285c-7.811-7.81-20.475-7.811-28.285,0L256,227.717 L34.143,5.859c-7.811-7.811-20.475-7.811-28.285,0c-7.81,7.811-7.811,20.475,0,28.285l221.857,221.857L5.858,477.859 c-7.811,7.811-7.811,20.475,0,28.285c3.905,3.905,9.024,5.857,14.143,5.857c5.119,0,10.237-1.952,14.143-5.857L256,284.287 l221.857,221.857c3.905,3.905,9.024,5.857,14.143,5.857s10.237-1.952,14.143-5.857c7.811-7.811,7.811-20.475,0-28.285 L284.286,256.002z"/></symbol><symbol id="home" viewBox="0 1 511 511.999"><title>home</title><path d="m498.699219 222.695312c-.015625-.011718-.027344-.027343-.039063-.039062l-208.855468-208.847656c-8.902344-8.90625-20.738282-13.808594-33.328126-13.808594-12.589843 0-24.425781 4.902344-33.332031 13.808594l-208.746093 208.742187c-.070313.070313-.144532.144531-.210938.214844-18.28125 18.386719-18.25 48.21875.089844 66.558594 8.378906 8.382812 19.441406 13.234375 31.273437 13.746093.484375.046876.96875.070313 1.457031.070313h8.320313v153.695313c0 30.417968 24.75 55.164062 55.167969 55.164062h81.710937c8.285157 0 15-6.71875 15-15v-120.5c0-13.878906 11.292969-25.167969 25.171875-25.167969h48.195313c13.878906 0 25.167969 11.289063 25.167969 25.167969v120.5c0 8.28125 6.714843 15 15 15h81.710937c30.421875 0 55.167969-24.746094 55.167969-55.164062v-153.695313h7.71875c12.585937 0 24.421875-4.902344 33.332031-13.8125 18.359375-18.367187 18.367187-48.253906.027344-66.632813zm-21.242188 45.421876c-3.238281 3.238281-7.542969 5.023437-12.117187 5.023437h-22.71875c-8.285156 0-15 6.714844-15 15v168.695313c0 13.875-11.289063 25.164062-25.167969 25.164062h-66.710937v-105.5c0-30.417969-24.746094-55.167969-55.167969-55.167969h-48.195313c-30.421875 0-55.171875 24.75-55.171875 55.167969v105.5h-66.710937c-13.875 0-25.167969-11.289062-25.167969-25.164062v-168.695313c0-8.285156-6.714844-15-15-15h-22.328125c-.234375-.015625-.464844-.027344-.703125-.03125-4.46875-.078125-8.660156-1.851563-11.800781-4.996094-6.679688-6.679687-6.679688-17.550781 0-24.234375.003906 0 .003906-.003906.007812-.007812l.011719-.011719 208.847656-208.839844c3.234375-3.238281 7.535157-5.019531 12.113281-5.019531 4.574219 0 8.875 1.78125 12.113282 5.019531l208.800781 208.796875c.03125.03125.066406.0625.097656.09375 6.644531 6.691406 6.632813 17.539063-.03125 24.207032zm0 0"/></symbol><symbol id="medicine" viewBox="0 0 512 512"><title>medicine</title><g> <g> <path d="M125.696,125.994c-5.52,0-10,4.48-10,10s4.48,10,10,10c5.52,0,10-4.48,10-10S131.216,125.994,125.696,125.994z"/> </g> </g><g> <g> <path d="M215.691,312.984h-29.998v-29.998c0-5.522-4.478-10-10-10s-9.999,4.478-9.999,10v29.998h-29.998 c-5.522,0-10,4.478-10,9.999s4.478,10,10,10h29.998v29.998c0,5.522,4.478,10,9.999,10s10-4.478,10-10v-29.998h29.998 c5.522,0,10-4.478,10-10S221.214,312.984,215.691,312.984z"/> </g> </g><g> <g> <path d="M485.578,321.984c-22.105-38.286-70.981-51.389-109.274-29.279l-40.618,23.45v-86.836c0-10.735-3.55-21.388-9.999-29.998 l-49.997-66.661v-28.386c11.638-4.128,19.999-15.242,19.999-28.279V29.998C295.687,13.457,282.23,0,265.689,0H85.698 C69.157,0,55.699,13.457,55.699,29.998v45.998c0,13.035,8.361,24.151,19.999,28.279v28.386l-50.001,66.665 c-6.446,8.606-9.996,19.258-9.996,29.993v193.66c0,27.569,22.429,49.997,49.997,49.997h160.702 c22.421,37.583,70.767,50.161,108.664,28.279L456.3,431.258C494.255,409.34,507.794,360.479,485.578,321.984z M75.698,29.998 c0-5.514,4.486-10,9.999-10h179.991c5.514,0,10,4.486,10,10v45.998c0,5.514-4.486,9.999-10,9.999H85.698 c-5.514,0-9.999-4.486-9.999-9.999V29.998z M41.701,211.319l51.996-69.326c1.298-1.73,2-3.836,2-6v-29.998h159.992v19.999h-89.995 c-5.522,0-10,4.478-10,10s4.478,10,10,10h94.995l48.993,65.322c3.202,4.275,5.191,9.39,5.792,14.674H35.913 C36.513,220.705,38.502,215.59,41.701,211.319z M65.699,452.977c-16.541,0-29.998-13.457-29.998-29.998v-10.099h181.675 c-3.171,12.965-3.15,26.813,0.481,40.098H65.699z M225.219,392.98H35.7V245.987h279.986V327.7l-60.619,35.002 C242.428,370.003,232.212,380.396,225.219,392.98z M325.066,483.935c-28.697,16.571-65.367,6.771-81.949-21.946 c-16.661-28.994-6.564-65.498,21.952-81.969l54.277-31.338l59.997,103.915L325.066,483.935z M446.3,413.939l-49.637,28.659 l-59.998-103.917l49.638-28.656c28.716-16.578,65.373-6.761,81.955,21.957C484.913,360.844,474.785,397.49,446.3,413.939z"/> </g> </g></symbol><symbol id="caduceus-symbol" viewBox="0 0 512 512"><title>caduceus-symbol</title><path d="m502 92.416h-149.246c-40.692 0-75.736 27.39-85.221 66.607-.005.019-.009.037-.014.056l-1.52 6.444v-51.315c22.512-4.814 39.435-24.715 39.435-48.463 0-27.335-22.42-49.573-49.978-49.573s-49.976 22.239-49.976 49.574c0 24.129 17.468 44.286 40.52 48.683v51.094l-1.52-6.444c-.005-.019-.009-.037-.014-.056-9.484-39.217-44.528-66.607-85.221-66.607h-149.245c-5.523 0-10 4.477-10 10v8.162c0 19.656 11.15 36.775 27.509 45.463v4.232c0 19.654 11.152 36.774 27.508 45.463v4.232c0 28.416 23.309 51.534 51.958 51.534h139.025v31.544h-51.472c-19.977 0-36.23 16.274-36.23 36.278s16.253 36.278 36.23 36.278h51.472v32.09h-49.561c-17.574 0-31.871 14.315-31.871 31.912s14.297 31.912 31.871 31.912h49.561v24.312c0 5.523 4.477 10 10 10 5.522 0 10-4.477 10-10v-24.312h78.786c5.522 0 10-4.477 10-10s-4.478-10-10-10h-78.786v-23.823h52.789c19.849 0 35.997-16.17 35.997-36.045s-16.148-36.045-35.997-36.045h-52.789v-32.556h53.061c19.698 0 35.725-16.047 35.725-35.772 0-5.694-1.303-11.038-3.642-15.772h53.881c28.649 0 51.958-23.118 51.958-51.534v-4.232c16.355-8.689 27.508-25.809 27.508-45.463v-4.232c16.359-8.689 27.509-25.809 27.509-45.464v-8.162c0-5.523-4.478-10-10-10zm-276.52-26.67c0-16.307 13.447-29.573 29.977-29.573s29.978 13.267 29.978 29.573-13.448 29.573-29.978 29.573-29.977-13.267-29.977-29.573zm-118.505 175.757c-16.997 0-30.938-13.159-31.904-29.696h69.874c5.522 0 10-4.477 10-10s-4.478-10-10-10h-65.478c-16.997 0-30.937-13.16-31.904-29.696h3.57c.179.01.359.015.541.015h92.336c5.522 0 10-4.477 10-10s-4.478-10-10-10h-91.51c-.179-.009-.359-.015-.541-.015-16.997 0-30.938-13.159-31.904-29.695h139.192c31.415 0 58.458 21.084 65.774 51.279l18.348 77.808zm139.025 200.013h-49.561c-6.546 0-11.871-5.344-11.871-11.912s5.325-11.912 11.871-11.912h49.561zm72.789-75.913c8.821 0 15.997 7.198 15.997 16.045s-7.176 16.045-15.997 16.045h-52.789v-32.09zm-72.789-20h-51.472c-8.949 0-16.23-7.302-16.23-16.278s7.28-16.278 16.23-16.278h51.472zm88.786-68.328c0 8.697-7.054 15.772-15.725 15.772h-53.061v-31.544h51.977c9.583 0 16.809 6.78 16.809 15.772zm125.256-135.164c-.181 0-.362.005-.54.015h-47.968c-5.522 0-10 4.477-10 10s4.478 10 10 10h52.903c-.974 16.529-14.911 29.681-31.903 29.681h-65.478c-5.522 0-10 4.477-10 10s4.478 10 10 10h69.874c-.967 16.537-14.907 29.696-31.904 29.696h-136.394l18.348-77.808c7.316-30.195 34.359-51.279 65.774-51.279h139.192c-.967 16.536-14.907 29.695-31.904 29.695z"/><path d="m360.59 160.44c3.535 2.356 8.259 2.183 11.637-.379 3.274-2.483 4.678-6.917 3.483-10.841-1.209-3.973-4.876-6.861-9.029-7.08-4.196-.221-8.159 2.285-9.77 6.16-1.799 4.325-.26 9.562 3.679 12.14z"/></symbol><symbol id="coronavirus" viewBox="0 0 510.974 510.974"><title>coronavirus</title><path d="m492.361 251.124c-6.043-1.184-12.182.054-17.292 3.487-4.232 2.844-7.338 6.913-8.953 11.659l-26.259-11.467c.054-1.797.081-3.568.081-5.293 0-15.439-1.933-30.769-5.747-45.62l11.779-7.99c7.466 6.539 18.317 8.494 27.817 4.367 12.783-5.555 18.906-20.348 13.938-33.678l-5.545-14.881c-5.027-13.493-19.488-20.602-32.919-16.194-6.797 2.232-12.267 6.994-15.401 13.408-1.783 3.648-2.682 7.561-2.684 11.493l-13.363 1.866c-1.831-3.356-3.831-6.757-5.967-10.145-2.209-3.504-6.842-4.553-10.344-2.345-3.505 2.209-4.555 6.84-2.346 10.344 2.521 3.999 4.831 8.006 6.866 11.912 2.043 3.916 6.351 6.137 10.711 5.529l24.098-3.364c2.236-.312 4.213-1.615 5.381-3.547s1.404-4.288.642-6.413c-1.035-2.884-.863-5.989.482-8.743 1.342-2.746 3.687-4.785 6.604-5.743 5.658-1.856 12.017 1.365 14.184 7.181l5.545 14.881c2.146 5.759-.483 12.346-5.861 14.684-5.148 2.236-11.21.319-14.107-4.458-1.065-1.757-2.806-3-4.813-3.438-2.007-.439-4.108-.032-5.809 1.121l-19.987 13.557c-3.708 2.514-5.396 7.111-4.2 11.439 4.012 14.527 6.046 29.593 6.046 44.778 0 2.488-.063 5.088-.185 7.729-.199 4.302 2.314 8.348 6.252 10.067l37.472 16.364c2.084.911 4.469.826 6.482-.229 2.015-1.055 3.441-2.967 3.879-5.199l1.188-6.05c.414-2.109 1.625-3.931 3.409-5.13 1.783-1.199 3.927-1.632 6.037-1.217 4.355.854 7.203 5.092 6.349 9.446l-6.145 31.317c-.428 2.18-1.695 4.039-3.569 5.235-1.872 1.195-4.098 1.557-6.267 1.027-4.1-1.007-6.735-5.398-5.874-9.79l.164-.837c.442-2.259-.177-4.596-1.68-6.339-1.503-1.745-3.74-2.709-6.022-2.596l-40.534 1.849c-4.291.195-8.086 3.073-9.442 7.165-3.755 11.338-8.739 22.293-14.815 32.559-2.263 3.822-1.866 8.668.987 12.058l17.932 21.303c1.332 1.583 3.259 2.544 5.323 2.659 2.065.112 4.087-.63 5.584-2.055 4.02-3.823 10.13-4.15 14.53-.783 2.382 1.822 3.91 4.462 4.306 7.434s-.391 5.92-2.212 8.301l-5.196 6.791c-3.733 4.877-10.705 6.131-15.542 2.798-4.111-2.833-5.869-8.113-4.275-12.84 1.242-3.681-.533-7.701-4.091-9.263l-25.832-11.346c-4.108-1.807-8.903-.786-11.935 2.541-11.518 12.648-24.819 23.424-39.534 32.029-3.717 2.17-5.746 6.476-5.052 10.713l6.613 40.324c.368 2.244 1.734 4.2 3.715 5.318s4.36 1.276 6.473.432l5.722-2.29c2.063-.825 4.313-.771 6.335.153 2.021.922 3.535 2.593 4.267 4.705 1.382 3.989-.875 8.588-5.031 10.25l-29.222 11.69c-2.063.826-4.312.771-6.335-.152-2.02-.922-3.535-2.593-4.267-4.704-1.382-3.989.874-8.588 5.027-10.25l.791-.316c2.138-.855 3.764-2.644 4.412-4.853.647-2.209.245-4.593-1.093-6.467l-23.575-33.032c-2.494-3.497-6.973-5.12-11.137-4.04-13.745 3.563-27.954 5.37-42.234 5.37-11.307 0-22.642-1.142-33.688-3.394-4.217-.859-8.599.994-10.912 4.615l-23.597 37.009c-1.223 1.917-1.509 4.286-.778 6.44.729 2.154 2.397 3.86 4.534 4.639l.835.305c2.865 1.044 5.152 3.142 6.439 5.907 1.287 2.764 1.42 5.865.376 8.73-.301.823-.454 1.693-.454 2.569 0 2.837-.837 4.986-2.357 6.049-1.519 1.064-3.823 1.116-6.49.142l-28.988-10.57c-5.805-2.116-8.895-8.589-6.89-14.429.957-2.784 3.017-5.048 5.801-6.376 2.941-1.403 6.36-1.577 9.377-.477l.664.242c2.161.79 4.567.541 6.523-.673 1.957-1.214 3.247-3.259 3.5-5.547l4.804-43.373c.473-4.268-1.779-8.461-5.603-10.435-17.535-9.056-33.224-21.034-46.627-35.597-2.95-3.208-7.634-4.255-11.656-2.604l-35.375 14.507c-1.963.805-3.493 2.403-4.211 4.399-.719 1.996-.558 4.203.441 6.074 2.245 4.2.93 9.345-3.058 11.967-4.111 2.705-9.867 1.44-12.827-2.82l-9.061-13.043c-2.906-4.183-2.214-9.798 1.575-12.784 1.959-1.544 4.39-2.22 6.84-1.905 2.469.318 4.653 1.584 6.152 3.566 1.356 1.794 3.446 2.885 5.694 2.972 2.24.086 4.415-.84 5.905-2.525l24.916-28.162c2.924-3.305 3.448-8.125 1.303-11.999-2.679-4.832-5.171-9.92-7.405-15.124-1.636-3.805-6.045-5.566-9.852-3.931-3.806 1.635-5.566 6.045-3.932 9.851 2.003 4.661 4.196 9.241 6.538 13.652l-17.846 20.173c-2.87-1.76-6.108-2.908-9.557-3.352-6.487-.833-12.889.943-18.04 5.001-10.009 7.888-12.033 22.438-4.608 33.124l9.061 13.042c7.561 10.884 22.537 13.931 33.388 6.795 8.115-5.337 12.026-14.646 10.661-23.714l26.08-10.696c13.394 14.064 28.794 25.819 45.854 35l-3.568 32.217c-4.282-.122-8.59.768-12.508 2.637-6.448 3.076-11.253 8.417-13.529 15.042-4.642 13.517 2.508 28.498 15.938 33.395l28.988 10.57c2.909 1.061 5.832 1.585 8.647 1.585 4.24 0 8.237-1.19 11.582-3.53 5.248-3.673 8.386-9.827 8.726-17.024 1.945-6.272 1.499-12.951-1.293-18.946-1.789-3.844-4.414-7.13-7.662-9.666l17.611-27.622c25.29 4.705 51.661 4.013 76.583-1.993l17.114 23.979c-6.736 6.096-9.534 15.689-6.443 24.613 2.088 6.023 6.424 10.795 12.21 13.438 5.706 2.605 12.314 2.763 18.137.435l29.223-11.69c11.676-4.671 17.665-17.448 13.633-29.087-2.087-6.023-6.423-10.796-12.209-13.439-4.747-2.168-10.123-2.643-15.149-1.397l-4.635-28.259c14.038-8.533 26.849-18.903 38.15-30.882l17.452 7.665c-.488 8.965 3.669 17.84 11.3 23.099 11.51 7.931 27.308 5.279 35.966-6.034l5.196-6.791c4.257-5.563 6.093-12.451 5.169-19.395s-4.496-13.113-10.06-17.37c-8.117-6.211-18.713-7.047-27.438-2.748l-11.508-13.672c5.379-9.47 9.915-19.445 13.52-29.73l29.417-1.342c1.459 8.967 7.993 16.527 17.165 18.779 6.19 1.521 12.553.471 17.914-2.951 5.286-3.375 9.01-8.838 10.217-14.991l6.145-31.317c2.446-12.471-5.709-24.607-18.18-27.054z"/><path d="m48.322 271.383 28.112 6.493c.612 3.909 1.369 7.878 2.259 11.837.783 3.488 3.879 5.859 7.311 5.858.544 0 1.097-.06 1.65-.184 4.041-.908 6.582-4.919 5.674-8.961-1.033-4.604-1.872-9.215-2.492-13.705-.591-4.273-3.805-7.795-7.996-8.762l-39.815-9.195c-2.213-.511-4.545.01-6.33 1.417-1.786 1.408-2.837 3.55-2.857 5.824l-.041 4.661c-.047 5.218-4.33 9.464-9.549 9.464-2.485 0-4.818-.972-6.567-2.737-1.75-1.766-2.701-4.106-2.679-6.591l.26-28.924c.023-2.652 1.15-5.247 3.091-7.119 1.824-1.76 4.129-2.704 6.564-2.632 5.066.134 9.166 4.37 9.138 9.443-.013 2.297 1.028 4.474 2.825 5.906 1.797 1.433 4.153 1.963 6.387 1.437l39.535-9.27c4.188-.982 7.388-4.513 7.965-8.787 2.917-21.633 9.936-42.198 20.861-61.126 2.204-3.822 1.77-8.644-1.085-12l-18.853-22.142c-1.474-1.73-3.641-2.702-5.927-2.635-2.273.066-4.394 1.159-5.766 2.972l-1.634 2.16c-1.221 1.614-3.001 2.629-5.013 2.86-2.005.23-3.976-.36-5.539-1.662-2.954-2.461-3.352-7.115-.887-10.374l12.558-16.604c2.438-3.223 7.044-3.863 10.267-1.424 3.018 2.282 3.791 6.569 1.761 9.76-1.178 1.853-1.485 4.128-.84 6.227s2.177 3.81 4.191 4.681l26.363 11.402c4.087 1.769 8.858.743 11.872-2.557 12.002-13.147 25.914-24.251 41.354-33.003 3.74-2.122 5.825-6.398 5.189-10.644l-6.073-40.408c-.338-2.249-1.679-4.223-3.644-5.367-1.967-1.145-4.347-1.335-6.466-.519l-5.753 2.213c-2.074.796-4.322.713-6.331-.237-2.008-.949-3.5-2.64-4.203-4.761-1.329-4.008.988-8.575 5.167-10.182l29.376-11.299c2.074-.798 4.322-.713 6.331.237 2.008.949 3.501 2.64 4.204 4.761 1.328 4.008-.989 8.575-5.168 10.183l-.794.306c-2.148.827-3.798 2.594-4.475 4.794-.676 2.2-.306 4.589 1.007 6.48l23.126 33.338c2.446 3.526 6.897 5.209 11.076 4.186 13.034-3.192 26.516-4.811 40.088-4.811h.004c4.425 0 8.392-2.789 9.871-6.936l7.657-21.426c.687-1.922.561-4.042-.35-5.868-.91-1.827-2.525-3.205-4.474-3.814-5.576-1.744-9.123-7.22-8.435-13.02.367-3.086 1.988-5.895 4.564-7.91 2.705-2.116 6.166-3.089 9.501-2.668l10.516 1.324c6.816.858 11.781 6.887 11.068 13.439-.551 5.058-4.092 9.16-9.021 10.45-3.61.945-5.977 4.401-5.552 8.109l2.661 23.218c.507 4.431 3.781 8.053 8.15 9.014 16.752 3.68 32.805 9.917 47.708 18.535 3.733 2.16 8.483 1.788 11.822-.922l31.729-25.755c1.766-1.433 2.785-3.59 2.773-5.864-.013-2.273-1.056-4.419-2.836-5.833l-4.827-3.833c-1.74-1.381-2.81-3.361-3.012-5.576-.201-2.211.497-4.355 1.968-6.038 2.777-3.181 7.888-3.503 11.396-.72l24.65 19.571c1.74 1.381 2.81 3.361 3.012 5.575.201 2.211-.497 4.355-1.968 6.039-2.778 3.179-7.892 3.501-11.394.721l-.665-.528c-1.804-1.433-4.166-1.957-6.403-1.423-2.24.534-4.11 2.067-5.073 4.158l-16.995 36.892c-1.797 3.902-.982 8.594 2.025 11.675 1.066 1.092 2.119 2.222 3.372 3.583 2.805 3.048 7.55 3.244 10.598.438 3.047-2.806 3.243-7.55.438-10.598-.53-.577-1.029-1.117-1.513-1.634l12.343-26.794c8.635 2.824 18.351.493 24.564-6.62 4.194-4.801 6.186-10.934 5.608-17.269-.569-6.246-3.712-12.063-8.623-15.961l-24.65-19.57c-9.849-7.819-23.913-6.68-32.019 2.599-4.194 4.801-6.186 10.934-5.608 17.269.474 5.198 2.729 10.1 6.305 13.845l-22.226 18.045c-14.52-8.069-30.004-14.09-46.108-17.931l-1.648-14.387c7.623-4.216 12.97-11.98 13.937-20.855 1.593-14.638-9.222-28.071-24.107-29.946l-10.516-1.324c-7.266-.914-14.783 1.176-20.614 5.735-5.748 4.495-9.378 10.872-10.219 17.957-1.224 10.3 3.528 20.142 11.781 25.708l-4.343 12.151c-12.638.216-25.199 1.725-37.428 4.496l-16.784-24.196c6.815-6.004 9.742-15.559 6.771-24.523-2.007-6.051-6.279-10.881-12.029-13.601-5.67-2.681-12.276-2.928-18.129-.677l-29.375 11.298c-11.739 4.514-17.898 17.21-14.021 28.903 2.006 6.051 6.277 10.881 12.028 13.601 4.718 2.231 10.083 2.778 15.129 1.599l4.256 28.318c-14.809 8.731-28.281 19.477-40.119 31.999l-16.933-7.323c1.376-8.017-1.687-16.516-8.495-21.666-4.757-3.598-10.628-5.131-16.538-4.308-5.908.819-11.143 3.891-14.74 8.648l-12.559 16.604c-7.349 9.714-5.922 23.308 3.248 30.947 4.745 3.953 10.728 5.744 16.852 5.04 3.861-.443 7.529-1.902 10.631-4.165l11.361 13.345c-10.498 18.937-17.455 39.337-20.709 60.723l-29.021 6.805c-3.523-8.792-12.047-15.16-22.011-15.423-6.487-.163-12.634 2.256-17.378 6.833-4.816 4.648-7.614 11.127-7.675 17.777l-.26 28.926c-.058 6.517 2.437 12.656 7.024 17.285s10.704 7.178 17.222 7.178c11.85.001 21.825-8.514 24.075-19.748z"/><path d="m219.962 230.442c3.659-1.939 5.054-6.479 3.114-10.139-1.939-3.658-6.477-5.056-10.14-3.114-17.923 9.5-38.352 6.989-48.569-5.975-5.733-7.272-7.705-16.909-5.553-27.134 2.256-10.722 8.708-20.733 18.167-28.188 9.457-7.456 20.699-11.386 31.65-11.082 10.445.295 19.354 4.463 25.088 11.736 8.608 10.921 8.499 27.222-.279 41.529-2.166 3.531-1.061 8.149 2.471 10.315 3.53 2.166 8.148 1.06 10.314-2.47 12.102-19.724 11.816-42.749-.727-58.66-8.533-10.826-21.476-17.021-36.443-17.443-14.464-.42-29.148 4.668-41.36 14.295-12.214 9.627-20.58 22.725-23.56 36.879-3.084 14.652-.082 28.684 8.451 39.509 8.985 11.398 23.054 17.394 38.19 17.393 9.643 0 19.718-2.432 29.186-7.451z"/><path d="m365.49 163.181c0-15.549-14.47-28.199-32.256-28.199s-32.257 12.65-32.257 28.199 14.471 28.199 32.257 28.199 32.256-12.65 32.256-28.199zm-49.512 0c0-7.278 7.741-13.199 17.257-13.199 9.515 0 17.256 5.921 17.256 13.199s-7.741 13.199-17.256 13.199c-9.516 0-17.257-5.921-17.257-13.199z"/><path d="m278.455 292.082c0-19.056-15.503-34.559-34.559-34.559-19.057 0-34.56 15.503-34.56 34.559s15.503 34.559 34.56 34.559c19.056 0 34.559-15.503 34.559-34.559zm-54.118 0c0-10.785 8.774-19.559 19.56-19.559 10.784 0 19.559 8.774 19.559 19.559s-8.774 19.559-19.559 19.559c-10.786 0-19.56-8.774-19.56-19.559z"/><path d="m376.229 277.985c0-14.819-12.056-26.875-26.875-26.875-14.818 0-26.874 12.056-26.874 26.875s12.056 26.875 26.874 26.875c14.819-.001 26.875-12.056 26.875-26.875zm-38.75 0c0-6.548 5.327-11.875 11.874-11.875 6.548 0 11.875 5.327 11.875 11.875s-5.327 11.875-11.875 11.875c-6.546-.001-11.874-5.327-11.874-11.875z"/><path d="m277.802 398.869c14.521 0 26.336-11.814 26.336-26.336 0-14.521-11.814-26.336-26.336-26.336s-26.337 11.814-26.337 26.336 11.814 26.336 26.337 26.336zm0-37.672c6.251 0 11.336 5.085 11.336 11.336s-5.085 11.336-11.336 11.336-11.337-5.085-11.337-11.336 5.086-11.336 11.337-11.336z"/><path d="m159.94 354.598c14.955 0 27.122-12.167 27.122-27.122s-12.167-27.122-27.122-27.122-27.122 12.167-27.122 27.122 12.167 27.122 27.122 27.122zm0-39.244c6.685 0 12.122 5.438 12.122 12.122s-5.438 12.122-12.122 12.122-12.122-5.438-12.122-12.122 5.438-12.122 12.122-12.122z"/><path d="m312.663 233.613c0-4.142-3.357-7.5-7.5-7.5h-6.63c-4.143 0-7.5 3.358-7.5 7.5s3.357 7.5 7.5 7.5h6.63c4.143 0 7.5-3.358 7.5-7.5z"/><path d="m210.025 372.213h6.812c4.143 0 7.5-3.358 7.5-7.5s-3.357-7.5-7.5-7.5h-6.812c-4.143 0-7.5 3.358-7.5 7.5s3.358 7.5 7.5 7.5z"/><path d="m146.88 262.991c4.143 0 7.5-3.358 7.5-7.5s-3.357-7.5-7.5-7.5h-6.562c-4.143 0-7.5 3.358-7.5 7.5s3.357 7.5 7.5 7.5z"/><path d="m280.087 131.774c4.143 0 7.5-3.358 7.5-7.5s-3.357-7.5-7.5-7.5h-9.132c-4.143 0-7.5 3.358-7.5 7.5s3.357 7.5 7.5 7.5z"/><path d="m329.979 332.797c-4.143 0-7.5 3.358-7.5 7.5s3.357 7.5 7.5 7.5h10.084c4.143 0 7.5-3.358 7.5-7.5s-3.357-7.5-7.5-7.5z"/></symbol><symbol id="user" viewBox="0 0 490.667 490.667"><title>user</title><g> <g> <path d="M245.333,0C110.059,0,0,110.059,0,245.333s110.059,245.333,245.333,245.333s245.333-110.059,245.333-245.333 S380.608,0,245.333,0z M245.333,469.333c-123.52,0-224-100.48-224-224s100.48-224,224-224s224,100.48,224,224 S368.853,469.333,245.333,469.333z"/> </g> </g><g> <g> <path d="M245.333,234.667c-76.459,0-138.667,62.208-138.667,138.667c0,5.888,4.779,10.667,10.667,10.667S128,379.221,128,373.333 C128,308.629,180.629,256,245.333,256s117.333,52.629,117.333,117.333c0,5.888,4.779,10.667,10.667,10.667 c5.888,0,10.667-4.779,10.667-10.667C384,296.875,321.792,234.667,245.333,234.667z"/> </g> </g><g> <g> <path d="M245.333,64c-41.173,0-74.667,33.493-74.667,74.667s33.493,74.667,74.667,74.667S320,179.84,320,138.667 S286.507,64,245.333,64z M245.333,192C215.936,192,192,168.064,192,138.667s23.936-53.333,53.333-53.333 s53.333,23.936,53.333,53.333S274.731,192,245.333,192z"/> </g> </g></symbol><symbol id="notification" viewBox="0 0 512 512"><title>notification</title><g> <g> <path d="M467.819,431.851l-36.651-61.056c-16.896-28.181-25.835-60.437-25.835-93.312V224 c0-82.325-67.008-149.333-149.333-149.333S106.667,141.675,106.667,224v53.483c0,32.875-8.939,65.131-25.835,93.312 l-36.651,61.056c-1.984,3.285-2.027,7.403-0.149,10.731c1.899,3.349,5.461,5.419,9.301,5.419h405.333 c3.84,0,7.403-2.069,9.301-5.419C469.845,439.253,469.803,435.136,467.819,431.851z M72.171,426.667l26.944-44.907 C118.016,350.272,128,314.219,128,277.483V224c0-70.592,57.408-128,128-128s128,57.408,128,128v53.483 c0,36.736,9.984,72.789,28.864,104.277l26.965,44.907H72.171z"/> </g> </g><g> <g> <path d="M256,0c-23.531,0-42.667,19.136-42.667,42.667v42.667C213.333,91.221,218.112,96,224,96s10.667-4.779,10.667-10.667 V42.667c0-11.776,9.557-21.333,21.333-21.333s21.333,9.557,21.333,21.333v42.667C277.333,91.221,282.112,96,288,96 s10.667-4.779,10.667-10.667V42.667C298.667,19.136,279.531,0,256,0z"/> </g> </g><g> <g> <path d="M302.165,431.936c-3.008-5.077-9.515-6.741-14.613-3.819c-5.099,2.987-6.805,9.536-3.819,14.613 c2.773,4.715,4.288,10.368,4.288,15.936c0,17.643-14.357,32-32,32c-17.643,0-32-14.357-32-32c0-5.568,1.515-11.221,4.288-15.936 c2.965-5.099,1.259-11.627-3.819-14.613c-5.141-2.923-11.627-1.259-14.613,3.819c-4.715,8.064-7.211,17.301-7.211,26.731 C202.667,488.085,226.581,512,256,512s53.333-23.915,53.376-53.333C309.376,449.237,306.88,440,302.165,431.936z"/> </g> </g></symbol><symbol id="menu" viewBox="0 0 512 512"><title>menu</title><path d="M256,0C114.837,0,0,114.837,0,256s114.837,256,256,256s256-114.837,256-256S397.163,0,256,0z M362.667,362.667H149.333 c-11.797,0-21.333-9.557-21.333-21.333c0-11.776,9.536-21.333,21.333-21.333h213.333c11.797,0,21.333,9.557,21.333,21.333 C384,353.109,374.464,362.667,362.667,362.667z M362.667,277.333H149.333C137.536,277.333,128,267.776,128,256 s9.536-21.333,21.333-21.333h213.333c11.797,0,21.333,9.557,21.333,21.333S374.464,277.333,362.667,277.333z M362.667,192H149.333 C137.536,192,128,182.443,128,170.667s9.536-21.333,21.333-21.333h213.333c11.797,0,21.333,9.557,21.333,21.333 S374.464,192,362.667,192z"/></symbol><symbol id="menu-1" viewBox="0 0 512 512"><title>menu-1</title><g transform="translate(1 1)"> <g> <g> <path d="M255-1C113.618-1-1,113.618-1,255s114.618,256,256,256s256-114.618,256-256S396.382-1,255-1z M255,468.333 c-117.818,0-213.333-95.515-213.333-213.333S137.182,41.667,255,41.667S468.333,137.182,468.333,255S372.818,468.333,255,468.333 z"/> <path d="M361.667,148.333H148.333c-11.782,0-21.333,9.551-21.333,21.333c0,11.782,9.551,21.333,21.333,21.333h213.333 c11.782,0,21.333-9.551,21.333-21.333C383,157.885,373.449,148.333,361.667,148.333z"/> <path d="M361.667,233.667H148.333C136.551,233.667,127,243.218,127,255s9.551,21.333,21.333,21.333h213.333 c11.782,0,21.333-9.551,21.333-21.333S373.449,233.667,361.667,233.667z"/> <path d="M361.667,319H148.333C136.551,319,127,328.551,127,340.333c0,11.782,9.551,21.333,21.333,21.333h213.333 c11.782,0,21.333-9.551,21.333-21.333C383,328.551,373.449,319,361.667,319z"/> </g> </g> </g></symbol><symbol id="menu-2" viewBox="0 0 512 512"><title>menu-2</title><g> <g> <path d="M501.333,96H10.667C4.779,96,0,100.779,0,106.667s4.779,10.667,10.667,10.667h490.667c5.888,0,10.667-4.779,10.667-10.667 S507.221,96,501.333,96z"/> </g> </g><g> <g> <path d="M501.333,245.333H10.667C4.779,245.333,0,250.112,0,256s4.779,10.667,10.667,10.667h490.667 c5.888,0,10.667-4.779,10.667-10.667S507.221,245.333,501.333,245.333z"/> </g> </g><g> <g> <path d="M501.333,394.667H10.667C4.779,394.667,0,399.445,0,405.333C0,411.221,4.779,416,10.667,416h490.667 c5.888,0,10.667-4.779,10.667-10.667C512,399.445,507.221,394.667,501.333,394.667z"/> </g> </g></symbol><symbol id="menu-3" viewBox="0 0 512 512"><title>menu-3</title><g> <g> <path d="M492,236H20c-11.046,0-20,8.954-20,20c0,11.046,8.954,20,20,20h472c11.046,0,20-8.954,20-20S503.046,236,492,236z"/> </g> </g><g> <g> <path d="M492,76H20C8.954,76,0,84.954,0,96s8.954,20,20,20h472c11.046,0,20-8.954,20-20S503.046,76,492,76z"/> </g> </g><g> <g> <path d="M492,396H20c-11.046,0-20,8.954-20,20c0,11.046,8.954,20,20,20h472c11.046,0,20-8.954,20-20 C512,404.954,503.046,396,492,396z"/> </g> </g></symbol></svg>