<svg xmlns="http://www.w3.org/2000/svg" style="display: none;"><symbol id="right" viewBox="-18 -18 572.00902 572"><title>right</title><path d="m279.628906 143.855469c-4.851562-4.855469-12.722656-4.855469-17.582031 0-4.855469 4.851562-4.855469 12.726562 0 17.582031l94.164063 94.164062h-250.191407c-6.886719 0-12.472656 5.585938-12.472656 12.472657 0 6.890625 5.585937 12.472656 12.472656 12.472656h250.066407l-94.164063 94.164063c-2.335937 2.328124-3.648437 5.496093-3.648437 8.792968 0 3.300782 1.3125 6.460938 3.648437 8.792969 2.335937 2.355469 5.535156 3.660156 8.855469 3.617187 3.308594-.015624 6.484375-1.3125 8.851562-3.617187l115.367188-115.363281c2.347656-2.351563 3.65625-5.542969 3.621094-8.859375-.023438-3.308594-1.320313-6.472657-3.621094-8.851563zm0 0"/><path d="m268.15625-.0742188c-108.457031-.0195312-206.242188 65.3085938-247.746094 165.5117188-41.496094 100.207031-18.542968 215.542969 58.171875 292.210938 104.703125 104.703124 274.453125 104.703124 379.152344 0 104.699219-104.695313 104.699219-274.445313 0-379.148438-50.167969-50.453125-118.429687-78.746094-189.578125-78.5742188zm0 511.3554688c-134.074219 0-243.203125-109.132812-243.203125-243.207031s109.128906-243.203125 243.203125-243.203125 243.207031 109.128906 243.207031 243.203125-109.132812 243.207031-243.207031 243.207031zm0 0"/></symbol><symbol id="24-hours" viewBox="0 0 512.001 512.001"><title>24-hours</title><g> <g> <path d="M400.147,131.245l87.687,6.388l6.388-87.686l-30.05-2.189l-2.513,34.499C413.521,30.176,345.737,0,273.78,0 c-141.16,0-256,114.842-256,256s114.842,256,256.001,256c85.357,0,164.845-42.459,212.629-113.579l-25.01-16.803 c-42.176,62.775-112.314,100.252-187.619,100.252C149.235,481.871,47.91,380.545,47.91,256S149.234,30.13,273.78,30.13 c64.05,0,124.351,27.126,166.9,73.857l-38.344-2.793L400.147,131.245z"/> </g> </g><g> <g> <path d="M148.036,284.294c0-9.686,9.687-15.972,23.45-22.94c15.802-7.986,26.847-17.162,26.847-36.874 c0-23.28-14.954-37.723-41.801-37.723c-23.11,0-40.272,11.045-47.749,19.541l16.823,18.013 c6.116-6.287,16.313-13.424,27.188-13.424c8.835,0,14.613,4.758,14.613,13.934c0,14.273-14.104,20.39-28.547,26.847 c-24.469,11.045-30.417,25.659-30.417,57.095h90.061v-24.469H148.036z"/> </g> </g><g> <g> <path d="M285.504,258.975v-71.029h-18.691l-56.076,71.029v24.299h47.579v25.319h27.188v-25.319h14.954v-24.299H285.504z M261.375,258.974h-23.62l23.62-30.247V258.974z"/> </g> </g><g> <g> <path d="M374.034,217.852c-13.084,0-24.469,6.117-30.927,16.653v-49.788h-27.188v124.046h27.188v-51.147 c3.4-9.516,12.406-15.803,18.862-15.803c7.817,0,12.914,5.268,12.914,16.823v50.128h27.189v-57.095 C402.071,236.205,397.992,217.852,374.034,217.852z"/> </g> </g></symbol><symbol id="checkmark" viewBox="0 -21 512.016 512"><title>checkmark</title><path d="m234.667969 469.339844c-129.386719 0-234.667969-105.277344-234.667969-234.664063s105.28125-234.6679685 234.667969-234.6679685c44.992187 0 88.765625 12.8203125 126.589843 37.0976565 7.425782 4.78125 9.601563 14.679687 4.820313 22.125-4.796875 7.445312-14.675781 9.597656-22.121094 4.820312-32.640625-20.972656-70.441406-32.042969-109.289062-32.042969-111.746094 0-202.667969 90.921876-202.667969 202.667969 0 111.742188 90.921875 202.664063 202.667969 202.664063 111.742187 0 202.664062-90.921875 202.664062-202.664063 0-6.679687-.320312-13.292969-.9375-19.796875-.851562-8.8125 5.589844-16.621094 14.378907-17.472656 8.832031-.8125 16.617187 5.589844 17.472656 14.378906.722656 7.53125 1.085937 15.167969 1.085937 22.890625 0 129.386719-105.277343 234.664063-234.664062 234.664063zm0 0"/><path d="m261.332031 288.007812c-4.09375 0-8.191406-1.558593-11.304687-4.691406l-96-96c-6.25-6.253906-6.25-16.386718 0-22.636718s16.382812-6.25 22.632812 0l84.695313 84.695312 223.335937-223.339844c6.253906-6.25 16.386719-6.25 22.636719 0s6.25 16.382813 0 22.632813l-234.667969 234.667969c-3.136718 3.113281-7.230468 4.671874-11.328125 4.671874zm0 0"/></symbol><symbol id="discount" viewBox="0 0 512.061 512.061"><title>discount</title><g> <g> <path d="M510.991,314.59l-22.496-58.56l22.464-58.592c2.496-6.464,0.512-13.824-4.864-18.176l-48.736-39.488l-9.856-61.984 c-1.088-6.816-6.464-12.192-13.28-13.28l-61.984-9.856L332.751,5.918c-4.352-5.376-11.68-7.328-18.176-4.864l-58.56,22.496 L197.423,1.086c-6.464-2.496-13.792-0.544-18.144,4.864l-39.488,48.736l-61.984,9.856c-6.816,1.088-12.192,6.464-13.28,13.28 l-9.856,61.984L5.935,179.294c-5.376,4.352-7.328,11.68-4.864,18.144l22.464,58.592L1.071,314.622 c-2.464,6.464-0.512,13.792,4.864,18.144l48.736,39.488l9.856,61.984c1.088,6.816,6.464,12.192,13.28,13.28l61.984,9.856 l39.488,48.736c4.384,5.408,11.712,7.392,18.176,4.864l58.56-22.464l58.592,22.464c1.856,0.704,3.808,1.056,5.728,1.056 c4.704,0,9.344-2.08,12.448-5.92l39.488-48.736l61.984-9.856c6.816-1.088,12.192-6.464,13.28-13.28l9.856-61.984l48.736-39.488 C511.503,328.414,513.455,321.054,510.991,314.59z M456.367,261.758l20.512,53.44l-44.512,36.032 c-3.072,2.496-5.12,6.016-5.728,9.92l-8.992,56.544l-56.544,8.992c-3.904,0.608-7.424,2.656-9.92,5.728l-35.968,44.512 l-53.44-20.512c-1.856-0.672-3.808-1.056-5.76-1.056c-1.952,0-3.904,0.352-5.728,1.056l-53.44,20.512l-36.032-44.512 c-2.496-3.072-6.016-5.12-9.92-5.728l-56.544-8.992l-8.992-56.544c-0.608-3.904-2.656-7.424-5.728-9.92l-44.512-36l20.512-53.44 c1.408-3.712,1.408-7.808-0.032-11.488l-20.48-53.472l44.512-36.032c3.072-2.496,5.12-6.016,5.728-9.92l8.992-56.544l56.544-8.992 c3.904-0.608,7.424-2.656,9.92-5.728l36-44.48l53.44,20.512c3.68,1.408,7.776,1.408,11.456,0l53.44-20.512l36.032,44.512 c2.496,3.072,6.016,5.12,9.92,5.728l56.544,8.992l8.992,56.544c0.608,3.904,2.656,7.424,5.728,9.92l44.512,36.032l-20.512,53.44 C454.959,253.982,454.959,258.078,456.367,261.758z"/> </g> </g><g> <g> <path d="M208.015,128.03c-26.464,0-48,21.536-48,48s21.536,48,48,48s48-21.536,48-48S234.479,128.03,208.015,128.03z M208.015,192.03c-8.832,0-16-7.168-16-16c0-8.832,7.168-16,16-16c8.832,0,16,7.168,16,16 C224.015,184.862,216.847,192.03,208.015,192.03z"/> </g> </g><g> <g> <path d="M304.015,288.03c-26.464,0-48,21.536-48,48s21.536,48,48,48s48-21.536,48-48S330.479,288.03,304.015,288.03z M304.015,352.03c-8.832,0-16-7.168-16-16c0-8.832,7.168-16,16-16c8.832,0,16,7.168,16,16 C320.015,344.862,312.847,352.03,304.015,352.03z"/> </g> </g><g> <g> <path d="M345.327,131.038c-7.168-5.12-17.184-3.456-22.304,3.712l-160,224c-5.152,7.168-3.488,17.184,3.68,22.304 c2.816,2.016,6.08,2.976,9.312,2.976c4.992,0,9.92-2.336,13.024-6.688l160-224C354.191,146.142,352.495,136.158,345.327,131.038z"/> </g> </g></symbol><symbol id="first-aid-kit" viewBox="0 0 388.8 388.8"><title>first-aid-kit</title><g> <g> <path d="M262.48,182.856c-0.027,0-0.053,0-0.08,0h-32.56v-32.64c0.044-6.583-5.257-11.956-11.84-12c-0.027,0-0.054,0-0.08,0 h-47.04c-6.583,0-11.92,5.337-11.92,11.92v32.64H126.4c-6.583-0.044-11.956,5.256-12,11.839c0,0.054,0,0.107,0,0.161v46.96 c0,6.583,5.337,11.92,11.92,11.92h32.64v32.56c-0.044,6.583,5.257,11.956,11.84,12c0.027,0,0.054,0,0.08,0h46.96 c6.583,0,11.92-5.337,11.92-11.92v0v-32.64h32.64c6.583,0.044,11.956-5.257,12-11.84c0-0.027,0-0.054,0-0.08v-46.96 C274.4,188.193,269.064,182.856,262.48,182.856z M258.4,237.656h-36.56c-4.418,0-8,3.582-8,8v36.56h-38.88v-36.56 c0-4.418-3.582-8-8-8H130.4v-38.8h36.56c4.418,0,8-3.582,8-8v-36.64h38.8v36.56c0,4.418,3.582,8,8,8h36.64V237.656z"/> </g> </g><g> <g> <path d="M333.6,78.376L333.6,78.376l-65.92,0v-28.16c0.415-12.85-9.666-23.604-22.516-24.019c-0.655-0.021-1.31-0.015-1.964,0.019 h-97.6c-12.84-0.669-23.791,9.197-24.461,22.036c-0.034,0.654-0.041,1.309-0.019,1.964v28H55.2c-25.44,0-55.2,14.48-55.2,55.2v174 c0,40.72,29.76,55.2,55.2,55.2h278.4c25.44,0,55.2-14.48,55.2-55.2v-173.84C388.8,92.856,359.12,78.376,333.6,78.376z M137.12,50.216c0-2.32,0-8.56,8.56-8.56h97.52c8.56,0,8.56,6.16,8.56,8.56v28H137.12V50.216z M372.8,307.416 c0,35.36-27.36,39.2-39.2,39.2H55.2c-11.76,0-39.2-3.84-39.2-39.2v-173.84c0-35.36,27.36-39.2,39.2-39.2h278.4 c11.76,0,39.2,3.84,39.2,39.2V307.416z"/> </g> </g></symbol><symbol id="video-conference" viewBox="0 0 512 512"><title>video-conference</title><path d="M378.389,171.925c-3.477-1.856-7.68-1.664-10.965,0.533L320,204.075v-22.741c0-5.888-4.779-10.667-10.667-10.667H160 c-31.104,0-32,76.608-32,85.333s0.896,85.333,32,85.333h149.333c5.888,0,10.667-4.779,10.667-10.667v-22.741l47.424,31.616 c1.792,1.195,3.84,1.792,5.909,1.792c1.728,0,3.456-0.427,5.035-1.259c3.456-1.856,5.632-5.461,5.632-9.408V181.333 C384,177.387,381.824,173.781,378.389,171.925z M362.667,310.741l-47.403-31.616c-3.307-2.197-7.488-2.389-10.965-0.533 c-3.456,1.856-5.632,5.461-5.632,9.408v32.021l-136.747,0.448c-4.245-3.051-12.587-25.792-12.587-64.469s8.341-61.419,10.667-64 h138.667v32c0,3.947,2.176,7.552,5.611,9.408c3.477,1.856,7.68,1.664,10.965-0.533l47.424-31.616V310.741z"/><path d="M256,0C114.837,0,0,114.837,0,256s114.837,256,256,256s256-114.837,256-256S397.163,0,256,0z M256,490.667 c-129.387,0-234.667-105.28-234.667-234.667S126.613,21.333,256,21.333S490.667,126.613,490.667,256S385.387,490.667,256,490.667 z"/></symbol><symbol id="qr-code" viewBox="0 0 512 512"><title>qr-code</title><path d="M24,80a8,8,0,0,0,8-8V32H72a8,8,0,0,0,0-16H24a8,8,0,0,0-8,8V72A8,8,0,0,0,24,80Z"/><path d="M488,16H440a8,8,0,0,0,0,16h40V72a8,8,0,0,0,16,0V24A8,8,0,0,0,488,16Z"/><path d="M72,480H32V440a8,8,0,0,0-16,0v48a8,8,0,0,0,8,8H72a8,8,0,0,0,0-16Z"/><path d="M488,432a8,8,0,0,0-8,8v40H440a8,8,0,0,0,0,16h48a8,8,0,0,0,8-8V440A8,8,0,0,0,488,432Z"/><path d="M160,152V56a8,8,0,0,0-8-8H56a8,8,0,0,0-8,8v96a8,8,0,0,0,8,8h96A8,8,0,0,0,160,152Zm-16-8H64V64h80Z"/><path d="M88,128h32a8,8,0,0,0,8-8V88a8,8,0,0,0-8-8H88a8,8,0,0,0-8,8v32A8,8,0,0,0,88,128Zm8-32h16v16H96Z"/><path d="M464,56a8,8,0,0,0-8-8H360a8,8,0,0,0-8,8v96a8,8,0,0,0,8,8h96a8,8,0,0,0,8-8Zm-16,88H368V64h80Z"/><path d="M392,128h32a8,8,0,0,0,8-8V88a8,8,0,0,0-8-8H392a8,8,0,0,0-8,8v32A8,8,0,0,0,392,128Zm8-32h16v16H400Z"/><path d="M152,352H56a8,8,0,0,0-8,8v96a8,8,0,0,0,8,8h96a8,8,0,0,0,8-8V360A8,8,0,0,0,152,352Zm-8,96H64V368h80Z"/><path d="M88,432h32a8,8,0,0,0,8-8V392a8,8,0,0,0-8-8H88a8,8,0,0,0-8,8v32A8,8,0,0,0,88,432Zm8-32h16v16H96Z"/><path d="M216,88a8,8,0,0,0,8-8V56a8,8,0,0,0-8-8H184a8,8,0,0,0,0,16h24V80A8,8,0,0,0,216,88Z"/><path d="M208,152h40a8,8,0,0,0,0-16H216V112a8,8,0,0,0-8-8H192V88a8,8,0,0,0-16,0v24a8,8,0,0,0,8,8h16v24A8,8,0,0,0,208,152Z"/><path d="M264,48H248a8,8,0,0,0,0,16h16a8,8,0,0,0,0-16Z"/><path d="M320,48H296a8,8,0,0,0-8,8V80H264a8,8,0,0,0,0,16h32a8,8,0,0,0,8-8V64h16a8,8,0,0,0,0-16Z"/><path d="M280,112a8,8,0,0,0-8,8v24a8,8,0,0,0,16,0V120A8,8,0,0,0,280,112Z"/><path d="M320,88v24h-8a8,8,0,0,0,0,16h16a8,8,0,0,0,8-8V88a8,8,0,0,0-16,0Z"/><path d="M232,112a8,8,0,0,0,8,8h8a8,8,0,0,0,0-16h-8A8,8,0,0,0,232,112Z"/><path d="M440,400a8,8,0,0,0,0-16H408V368h16a8,8,0,0,0,8-8V312a8,8,0,0,0-16,0v40H344V288a8,8,0,0,0-8-8H312v-8a8,8,0,0,0-8-8H264V224a8,8,0,0,0-16,0v8H232V192a8,8,0,0,0-16,0v48a8,8,0,0,0,8,8h24v24a8,8,0,0,0,8,8h40v8a8,8,0,0,0,8,8h24v16H312a8,8,0,0,0,0,16h16V448a8,8,0,0,0,16,0V432h16v16a8,8,0,0,0,16,0V432h16v24a8,8,0,0,0,16,0V400Zm-96-32h48v48H344Z"/><path d="M216,448V424a8,8,0,0,0-8-8h-8V384h48a8,8,0,0,0,8-8V344a8,8,0,0,0-8-8h-8V312a8,8,0,0,0-8-8H216V272a8,8,0,0,0-16,0v32H184a8,8,0,0,0-8,8v32a8,8,0,0,0,16,0V320h32v16h-8a8,8,0,0,0-8,8v24H192a8,8,0,0,0-8,8v40a8,8,0,0,0,0,16h16v16H184a8,8,0,0,0,0,16h32a8,8,0,0,0,0-16Zm8-96h16v16H224Z"/><path d="M304,400H272a8,8,0,0,0-8,8v40H248a8,8,0,0,0,0,16h40a8,8,0,0,0,0-16h-8V416h16v8a8,8,0,0,0,16,0V408A8,8,0,0,0,304,400Z"/><path d="M248,424V408a8,8,0,0,0-16,0v16a8,8,0,0,0,16,0Z"/><path d="M304,352H280a8,8,0,0,0,0,16h24a8,8,0,0,0,0-16Z"/><path d="M280,336a8,8,0,0,0,8-8V304a8,8,0,0,0-8-8H256a8,8,0,0,0,0,16h16v16A8,8,0,0,0,280,336Z"/><path d="M464,280a8,8,0,0,0-16,0v24a8,8,0,0,0,16,0Z"/><path d="M456,328a8,8,0,0,0-8,8v32a8,8,0,0,0,16,0V336A8,8,0,0,0,456,328Z"/><path d="M368,336h24a8,8,0,0,0,0-16H376V304a8,8,0,0,0-16,0v24A8,8,0,0,0,368,336Z"/><path d="M120,216a8,8,0,0,0-8-8H96V184a8,8,0,0,0-8-8H56a8,8,0,0,0,0,16H80v24a8,8,0,0,0,8,8h24A8,8,0,0,0,120,216Z"/><path d="M136,192h40a8,8,0,0,0,8-8V144a8,8,0,0,0-16,0v32H136a8,8,0,0,0,0,16Z"/><path d="M48,232v32a8,8,0,0,0,16,0V232a8,8,0,0,0-16,0Z"/><path d="M88,240a8,8,0,0,0,0,16h16a8,8,0,0,0,0-16Z"/><path d="M184,272V256h8a8,8,0,0,0,0-16h-8V216a8,8,0,0,0-8-8H144a8,8,0,0,0,0,16h24v16H136a8,8,0,0,0-8,8v24h-8a8,8,0,0,0-8,8v40H96V296a8,8,0,0,0-8-8H56a8,8,0,0,0,0,16H80v16H56a8,8,0,0,0,0,16h96a8,8,0,0,0,0-16H128V288h16v8a8,8,0,0,0,16,0V280a8,8,0,0,0-8-8h-8V256h24v16a8,8,0,0,0,16,0Z"/><path d="M264,184h16a8,8,0,0,0,0-16H264a8,8,0,0,0,0,16Z"/><path d="M296,216h16a8,8,0,0,0,0-16H296a8,8,0,0,0,0,16Z"/><path d="M352,192v32a8,8,0,0,0,8,8h16a8,8,0,0,0,0-16h-8V192h32a8,8,0,0,0,0-16H344v-8a8,8,0,0,0-8-8H320V144a8,8,0,0,0-16,0v24a8,8,0,0,0,8,8h16v8a8,8,0,0,0,8,8Z"/><path d="M288,248h40a8,8,0,0,0,0-16H288a8,8,0,0,0,0,16Z"/><path d="M464,184a8,8,0,0,0-8-8H432a8,8,0,0,0,0,16h16v16H424a8,8,0,0,0,0,16h24v16H416a8,8,0,0,0,0,16h40a8,8,0,0,0,8-8Z"/><path d="M352,264h8v8a8,8,0,0,0,16,0V256a8,8,0,0,0-8-8H352a8,8,0,0,0,0,16Z"/><path d="M408,296v-8h16a8,8,0,0,0,0-16H400a8,8,0,0,0-8,8v16a8,8,0,0,0,16,0Z"/><path d="M440,456V432h16a8,8,0,0,0,0-16H432a8,8,0,0,0-8,8v32a8,8,0,0,0,16,0Z"/><circle cx="368" cy="392" r="8"/></symbol></svg>